# xmcd
#
# Track frame offsets:
#	150
#	10781
#	27807
#	43718
#	63583
#	82956
#	95640
#	110248
#	125585
#	135556
#	150113
#	160948
#	177418
#	190275
#	208034
#	220481
#	236010
#	249729
#	260736
#	277470
#
# Disc length: 3859 seconds
#
# Revision: 0
# Processed by: cddbd v1.5.2PL0 Copyright (c) Steve Scherf et al.
# Submitted via: dBpowerAMP V4.0
#
DISCID=2c0f1114
DTITLE=DANIEL O'DONNELL - COUNTRY BOY
DYEAR=2008
DGENRE=Country
TTITLE0=I'M GOING TO BE A COUNTRY BOY AGAIN
TTITLE1=IF I SAID YOU HAD A BEAUTIFUL BODY WOULD YOU HOLD IT AGAINST ME
TTITLE2=LUCILLE
TTITLE3=BACK HOME AGAIN
TTITLE4=ME AND BOBBY MCGEE
TTITLE5=KING OF THE ROAD
TTITLE6=LITTLE OLD WINE DRINKER ME
TTITLE7=RELEASE ME
TTITLE8=FROM HERE TO THERE TO YOU
TTITLE9=DETROIT CITY
TTITLE10=I WANNA BE FREE ( WITH LORETTA LYNN )
TTITLE11=MOTHER'S BIRTHDAY SONG
TTITLE12=CRYSTAL CHANDELIERS ( WITH CHARLEY PRIDE )
TTITLE13=SEVEN SPANISH ANGELS
TTITLE14=RING OF FIRE
TTITLE15=HE STOPED LOVING HER TODAY
TTITLE16=OKIE FROM MUSKOGEE
TTITLE17=I'M JUST LUCKY I GUESS
TTITLE18=COULD I HAVE THIS DANCE FOR THE REST OF MY LIFE
TTITLE19=OH LONESOME ME
EXTD=
EXTT0=
EXTT1=
EXTT2=
EXTT3=
EXTT4=
EXTT5=
EXTT6=
EXTT7=
EXTT8=
EXTT9=
EXTT10=
EXTT11=
EXTT12=
EXTT13=
EXTT14=
EXTT15=
EXTT16=
EXTT17=
EXTT18=
EXTT19=
PLAYORDER=
